#N canvas 123 68 1440 766 10;
#X obj 374 100 s bela_setDigital;
#X obj 374 38 loadbang;
#X obj -20 116 phasor~ 2000;
#X obj -21 175 expr~ $v1 < 0.5;
#X text 675 842 ............................;
#X text 675 852 . ____ ._____ _ .......___ .;
#X text 675 862 .| __ )| ____| |....../ _ |.;
#X text 675 882 .| |_) | |___| |___ / ___ |.;
#X text 675 892 .|____/|_____|_____/_/..._|.io;
#X text 675 902 ............................;
#X text 675 872 .| __ || __|.| |...../ _| |.;
#X text 234 899 https://blog.bela.io/2018/12/10/bela-controlling-dc-motors/
;
#X text 234 879 For a full tutorial on using motors with Bela see;
#X obj 134 205 dac~ 27 28 29 30;
#X obj 594 986 tgl 15 0 empty empty empty 17 7 0 10 -262144 -1 -1 0
1;
#X obj 595 1009 t b f;
#X floatatom 595 1030 5 0 0 0 - - -;
#X obj 595 1050 expr if ($f2 == 1 \, $f1 \, 1);
#X floatatom 595 1071 5 0 0 0 - - -;
#X floatatom 660 1009 5 0 0 0 - - -;
#X text 593 960 if-else expr;
#X text 694 401 MR_IN2;
#X text 564 399 MR_IN1(0/3.3V);
#X text 690 471 ML_IN2;
#X text 561 467 ML_IN1(0/3.3V);
#X obj -21 246 dac~ 3 4;
#X obj 559 449 s bela_digitalOut19;
#X obj 689 450 s bela_digitalOut20;
#X obj 561 421 s bela_digitalOut11;
#X obj 690 421 s bela_digitalOut12;
#X obj 66 590 expr~ $v1 > (($v2*0.05)+0.9);
#X obj 231 544 clip~ 0 1;
#X text -54 1123 ADC 3: Analog In 0;
#X text -54 1133 ADC 4: Analog In 1;
#X text -54 1143 ADC 5: Analog In 2;
#X text -54 1153 ADC 6: Analog In 3;
#X text -54 1163 ADC 7: Analog In 4;
#X text -54 1173 ADC 8: Analog In 5;
#X text -54 1183 ADC 9: Analog In 6;
#X text -54 1193 ADC 10: Analog In 7;
#X text -54 1077 ADC channels 3-10 are used to address the analog inputs:
;
#X text -54 1203 DAC 27-28-29-30: Bela scope;
#X text 297 556 -> Duty Cycle Ratio;
#X obj 231 509 osc~ 1;
#X obj 1066 904 delay 3;
#X obj 1066 945 change;
#X obj 1066 970 sel 1;
#X obj 1066 1002 f 0;
#X obj 1121 1002 == 0;
#X floatatom 1066 1035 5 0 0 0 - - -;
#X obj 1066 1064 expr if ($f1 == 0 \, 1 \, 0);
#X floatatom 1066 1092 5 0 0 0 - - -;
#X text 1330 910 LED;
#X obj 1066 870 r bela_digitalIn18;
#X obj 1197 909 s bela_digitalOut17;
#X obj 142 664 dac~ 13;
#X obj 65 646 dac~ 14;
#X obj 66 560 phasor~ 50;
#X obj 142 635 *~ 0;
#X obj 818 205 r wekOutputs;
#X floatatom 818 243 5 0 0 0 - - -;
#X obj 799 270 sel 1 2 3 4 5;
#X text 910 602 MR_IN2;
#X text 780 599 MR_IN1(0/3.3V);
#X text 924 675 ML_IN2;
#X text 782 673 ML_IN1(0/3.3V);
#X obj 763 652 s bela_digitalOut19;
#X obj 893 653 s bela_digitalOut20;
#X obj 765 624 s bela_digitalOut11;
#X obj 894 624 s bela_digitalOut12;
#X obj 1087 624 dac~ 1 2;
#X obj 1088 590 *~ 10;
#X obj 1088 554 osc~ 1;
#X msg 1106 510 260;
#X msg 1145 512 1047;
#X msg 1220 511 1397;
#X obj 895 244 print;
#X obj 1072 156 netreceive -u -b;
#X msg 1084 129 listen 0;
#X obj 1072 209 oscparse;
#X obj 1072 156 netreceive -u -b;
#X obj 1072 79 loadbang;
#X obj 1072 239 route list;
#X msg 1072 101 listen 12000;
#X obj 1072 270 route wek;
#X obj 1072 294 route outputs;
#X floatatom 1072 326 5 0 0 0 - - -;
#X obj 1072 349 s wekOutputs;
#X msg 1182 511 880;
#X msg 786 306 0;
#X msg 749 306 0;
#X msg 787 333 1;
#X msg 820 306 0;
#X msg 821 333 1;
#X msg 856 306 0;
#X msg 857 333 1;
#X msg 895 306 0;
#X msg 896 333 1;
#X obj 1025 475 expr if ($i1 == 1 \, 0 \, 10);
#X obj 66 618 *~ 0;
#X obj 290 606 expr if ($i1 == 1 \, 1 \, 0);
#X obj 1181 582 osc~;
#X obj 1181 558 * 1.5;
#X obj 1227 583 osc~;
#X obj 1227 557 * 1.25;
#X text 1066 39 ===========;
#X text 1066 25 Wekinator Output Receiver;
#X text 78 176 <<< PWM signal with 50% duty cycle;
#X text 241 203 <<< Bela IDE Oscilloscope;
#X text 297 508 <<< Servo Speed @ 1Hz(low fre.) == 1 s/period;
#X text 295 541 <<< restrict a signal to lie between two limits;
#X text 861 947 Push Button to Toggle Switch >>>;
#X text 922 1064 Invert state value >>>;
#X text 1039 669 Octave: 2/1 Perfect Fifth: 3/2 Major Third: 5/4 Major
Second: 9/8;
#X text 1143 268 <<< access each OSC message ID;
#X text 1155 239 <<< access the resulting list;
#X text 1137 210 <<< translate OSC format to PD messages;
#X text 1145 126 <<< stop listening;
#X text 1159 100 <<< Receive Wek-OSC messages;
#X text 435 40 <<< initialise the Bela pins to outputs or inputs;
#X text -23 90 =================================;
#X text 496 229 ===============================================;
#X text 496 205 DC Motor Digital Control(Input 1 \, 2 \, 3 \, 4 pin):
;
#X text 496 219 Forward \, Backward;
#X text 456 623 DC Motor Digital Control(Input 1 \, 2 \, 3 \, 4 pin):
;
#X text 456 639 TurnLeft \, TurnRight;
#X text 456 649 ============================================>>>>;
#X obj 290 576 r wekOutputs;
#X text -41 498 Servo PWM Control;
#X text -41 508 =================;
#X text 1270 506 Speaker OSC;
#X text 1270 516 <<<=========;
#X text -25 267 MR_EN \, ML_EN(PWM \, AnalogOutPin 0 \, 1);
#X text -23 80 DC Motor PWM Control(Enable pin);
#X text -43 542 $v1: sawtooth generator @ 50Hz/20 ms/period;
#X msg 374 64 out 11 \, out 12 \, out 19 \, out 20 \, out 13 ~ \, out
14 ~;
#X connect 1 0 135 0;
#X connect 2 0 3 0;
#X connect 3 0 13 0;
#X connect 3 0 25 0;
#X connect 3 0 25 1;
#X connect 14 0 15 0;
#X connect 15 0 16 0;
#X connect 15 1 17 1;
#X connect 15 1 19 0;
#X connect 16 0 17 0;
#X connect 17 0 18 0;
#X connect 30 0 58 0;
#X connect 30 0 99 0;
#X connect 31 0 30 1;
#X connect 43 0 31 0;
#X connect 44 0 45 0;
#X connect 45 0 46 0;
#X connect 46 0 47 0;
#X connect 47 0 48 0;
#X connect 47 0 49 0;
#X connect 48 0 47 1;
#X connect 49 0 50 0;
#X connect 50 0 51 0;
#X connect 50 0 54 0;
#X connect 53 0 44 0;
#X connect 57 0 30 0;
#X connect 58 0 55 0;
#X connect 59 0 76 0;
#X connect 59 0 60 0;
#X connect 60 0 61 0;
#X connect 60 0 98 0;
#X connect 61 0 90 0;
#X connect 61 1 73 0;
#X connect 61 1 89 0;
#X connect 61 1 91 0;
#X connect 61 2 74 0;
#X connect 61 2 92 0;
#X connect 61 2 93 0;
#X connect 61 3 88 0;
#X connect 61 3 94 0;
#X connect 61 3 95 0;
#X connect 61 4 75 0;
#X connect 61 4 97 0;
#X connect 71 0 70 0;
#X connect 71 0 70 1;
#X connect 72 0 71 0;
#X connect 73 0 72 0;
#X connect 73 0 102 0;
#X connect 73 0 104 0;
#X connect 74 0 72 0;
#X connect 74 0 102 0;
#X connect 74 0 104 0;
#X connect 75 0 72 0;
#X connect 75 0 102 0;
#X connect 75 0 104 0;
#X connect 77 0 79 0;
#X connect 78 0 77 0;
#X connect 79 0 82 0;
#X connect 81 0 83 0;
#X connect 82 0 84 0;
#X connect 83 0 77 0;
#X connect 84 0 85 0;
#X connect 85 0 86 0;
#X connect 86 0 87 0;
#X connect 88 0 72 0;
#X connect 88 0 102 0;
#X connect 88 0 104 0;
#X connect 89 0 28 0;
#X connect 89 0 26 0;
#X connect 90 0 28 0;
#X connect 90 0 26 0;
#X connect 90 0 29 0;
#X connect 90 0 27 0;
#X connect 90 0 68 0;
#X connect 90 0 69 0;
#X connect 90 0 66 0;
#X connect 90 0 67 0;
#X connect 91 0 29 0;
#X connect 91 0 27 0;
#X connect 92 0 29 0;
#X connect 92 0 27 0;
#X connect 93 0 28 0;
#X connect 93 0 26 0;
#X connect 94 0 68 0;
#X connect 94 0 67 0;
#X connect 95 0 66 0;
#X connect 95 0 69 0;
#X connect 96 0 69 0;
#X connect 96 0 66 0;
#X connect 97 0 68 0;
#X connect 97 0 67 0;
#X connect 98 0 71 1;
#X connect 99 0 56 0;
#X connect 100 0 99 1;
#X connect 100 0 58 1;
#X connect 101 0 71 0;
#X connect 102 0 101 0;
#X connect 103 0 71 0;
#X connect 104 0 103 0;
#X connect 127 0 100 0;
#X connect 135 0 0 0;
