#N canvas 201 179 450 300 10;
#N canvas 523 270 748 547 getOSC 1;
#X obj 78 135 netreceive -u -b;
#X msg 90 108 listen 0;
#X obj 78 188 oscparse;
#X obj 78 135 netreceive -u -b;
#X text 172 80 // listen on port;
#X text 151 105 // stop listening;
#X text 211 130 // UDP packets \, binary output, f 13;
#X text 143 189 // translate OSC format to PD messages;
#X obj 78 58 loadbang;
#X text 161 218 // access the resulting list;
#X obj 78 218 route list;
#X text 203 249 // access each OSC message ID;
#X text 45 5 //----------------- Receiving OSC packages with PD Vanilla's
built-in OSC ---------------;
#X obj 22 260 print;
#X obj 126 459 s wekInputs;
#X msg 78 80 listen 7400;
#X obj 78 249 route accelerometer;
#X obj 78 332 route raw;
#X obj 78 353 route x;
#X floatatom 78 374 5 0 0 0 - - -;
#X obj 161 332 route raw;
#X floatatom 161 374 5 0 0 0 - - -;
#X obj 247 330 route raw;
#X floatatom 247 372 5 0 0 0 - - -;
#X obj 161 353 route y;
#X obj 247 351 route z;
#X floatatom 557 207 5 0 0 0 - - -;
#X obj 487 111 route mrmr;
#X obj 487 141 route accelerometerX;
#X obj 487 175 unpack 0 0 0;
#X obj 125 420 pack 0 0 0;
#X text 68 38 // Receive OSC messages from Cell Phone's APP;
#X connect 0 0 2 0;
#X connect 1 0 0 0;
#X connect 2 0 10 0;
#X connect 8 0 15 0;
#X connect 10 0 16 0;
#X connect 10 0 13 0;
#X connect 15 0 0 0;
#X connect 16 0 17 0;
#X connect 16 0 20 0;
#X connect 16 0 22 0;
#X connect 17 0 18 0;
#X connect 18 0 19 0;
#X connect 19 0 30 0;
#X connect 20 0 24 0;
#X connect 21 0 30 1;
#X connect 22 0 25 0;
#X connect 23 0 30 2;
#X connect 24 0 21 0;
#X connect 25 0 23 0;
#X connect 27 0 28 0;
#X connect 28 0 29 0;
#X connect 29 2 26 0;
#X connect 30 0 14 0;
#X restore 153 110 pd getOSC;
#N canvas 71 339 670 335 sendOSCToWek 1;
#X text 68 38 // Receive OSC messages;
#X obj 74 276 netsend -u -b;
#X msg 119 246 disconnect;
#X obj 75 135 list prepend send;
#X obj 74 156 list trim;
#X text 224 93 // translate PD messages to OSC fromat;
#X text 204 136 // make the OSC package;
#X text 208 245 // disconnect from the IP address;
#X obj 86 188 loadbang;
#X text 45 5 //----------------- Sending OSC packages with PD Vanilla's
built-in OSC ---------------;
#X obj 75 93 oscformat wek/inputs;
#X obj 75 68 r wekInputs;
#X msg 86 212 connect 127.0.0.1 6448;
#X text 255 211 // connect to PC's IP address on a particular port
;
#X connect 2 0 1 0;
#X connect 3 0 4 0;
#X connect 4 0 1 0;
#X connect 8 0 12 0;
#X connect 10 0 3 0;
#X connect 11 0 10 0;
#X connect 12 0 1 0;
#X restore 153 140 pd sendOSCToWek;
#X text 109 75 Run on Local PC \, don't upload to Bela!;
#X text 109 58 PC \, Cell Phone \, Bela should in the same network.
;
